%TF.GenerationSoftware,KiCad,Pcbnew,10.0.6*%
%TF.CreationDate,2026-10-04T21:28:56-07:00*%
%TF.ProjectId,ldo_bringup_board_ee372,6c646f5f-6272-4696-9e67-75705f626f61,0*%
%TF.SameCoordinates,Original*%
%TF.FileFunction,Soldermask,Bot*%
%TF.FilePolarity,Negative*%
%FSLAX46Y46*%
G04 Gerber Fmt 4.6, Leading zero omitted, Abs format (unit mm)*
G04 Created by KiCad (PCBNEW 10.0.6) date 2026-10-04 21:28:56*
%MOMM*%
%LPD*%
G01*
G04 APERTURE LIST*
G04 Aperture macros list*
%AMRoundRect*
0 Rectangle with rounded corners*
0 $1 Rounding radius*
0 $2 $3 $4 $5 $6 $7 $8 $9 X,Y pos of 4 corners*
0 Add a 4 corners polygon primitive as box body*
4,1,4,$2,$3,$4,$5,$6,$7,$8,$9,$2,$3,0*
0 Add four circle primitives for the rounded corners*
1,1,$1+$1,$2,$3*
1,1,$1+$1,$4,$5*
1,1,$1+$1,$6,$7*
1,1,$1+$1,$8,$9*
0 Add four rect primitives between the rounded corners*
20,1,$1+$1,$2,$3,$4,$5,0*
20,1,$1+$1,$4,$5,$6,$7,0*
20,1,$1+$1,$6,$7,$8,$9,0*
20,1,$1+$1,$8,$9,$2,$3,0*%
G04 Aperture macros list end*
%ADD10C,3.200000*%
%ADD11C,1.524000*%
%ADD12RoundRect,0.250000X-1.600000X0.425000X-1.600000X-0.425000X1.600000X-0.425000X1.600000X0.425000X0*%
%ADD13R,1.700000X1.700000*%
%ADD14C,1.700000*%
%ADD15C,2.800000*%
%ADD16C,2.550000*%
%ADD17RoundRect,0.250000X1.600000X-0.425000X1.600000X0.425000X-1.600000X0.425000X-1.600000X-0.425000X0*%
%ADD18RoundRect,0.250000X0.550000X-0.550000X0.550000X0.550000X-0.550000X0.550000X-0.550000X-0.550000X0*%
%ADD19C,1.600000*%
%ADD20C,0.900000*%
%ADD21RoundRect,0.250000X-0.550000X0.550000X-0.550000X-0.550000X0.550000X-0.550000X0.550000X0.550000X0*%
%ADD22RoundRect,0.250000X0.425000X1.600000X-0.425000X1.600000X-0.425000X-1.600000X0.425000X-1.600000X0*%
G04 APERTURE END LIST*
D10*
%TO.C,H3*%
X105250000Y-55000000D03*
%TD*%
D11*
%TO.C,J10*%
X138500000Y-65040000D03*
X138500000Y-62500000D03*
%TD*%
D12*
%TO.C,J14*%
X102350000Y-98825000D03*
X102350000Y-93175000D03*
%TD*%
D13*
%TO.C,U2*%
X121790000Y-147740000D03*
D14*
X124330000Y-147740000D03*
X126870000Y-147740000D03*
X129410000Y-147740000D03*
X131950000Y-147740000D03*
X134490000Y-147740000D03*
X137030000Y-147740000D03*
X139570000Y-147740000D03*
X142110000Y-147740000D03*
X144650000Y-147740000D03*
X147190000Y-147740000D03*
X149730000Y-147740000D03*
X152270000Y-147740000D03*
X154810000Y-147740000D03*
X157350000Y-147740000D03*
X159890000Y-147740000D03*
X162430000Y-147740000D03*
X164970000Y-147740000D03*
X167510000Y-147740000D03*
X170050000Y-147740000D03*
X172590000Y-147740000D03*
X175130000Y-147740000D03*
X177670000Y-147740000D03*
X180210000Y-147740000D03*
X180210000Y-132500000D03*
X177670000Y-132500000D03*
X175130000Y-132500000D03*
X172590000Y-132500000D03*
X170050000Y-132500000D03*
X167510000Y-132500000D03*
X164970000Y-132500000D03*
X162430000Y-132500000D03*
X159890000Y-132500000D03*
X157350000Y-132500000D03*
X154810000Y-132500000D03*
X152270000Y-132500000D03*
X149730000Y-132500000D03*
X147190000Y-132500000D03*
X144650000Y-132500000D03*
X142110000Y-132500000D03*
X139570000Y-132500000D03*
X137030000Y-132500000D03*
X134490000Y-132500000D03*
X131950000Y-132500000D03*
X129410000Y-132500000D03*
X126870000Y-132500000D03*
X124330000Y-132500000D03*
X121790000Y-132500000D03*
%TD*%
D15*
%TO.C,TP25*%
X131500000Y-106500000D03*
%TD*%
%TO.C,TP1*%
X137000000Y-71500000D03*
%TD*%
%TO.C,TP21*%
X169500000Y-93250000D03*
%TD*%
D16*
%TO.C,J8*%
X107040000Y-112710000D03*
X101960000Y-112710000D03*
X107040000Y-117790000D03*
X101960000Y-117790000D03*
%TD*%
D15*
%TO.C,TP35*%
X165750000Y-55500000D03*
%TD*%
D11*
%TO.C,J23*%
X171030100Y-126084900D03*
X171030100Y-128624900D03*
%TD*%
D17*
%TO.C,J16*%
X197650000Y-62500000D03*
X197650000Y-68150000D03*
%TD*%
D16*
%TO.C,J2*%
X139790000Y-57540000D03*
X139790000Y-52460000D03*
X134710000Y-57540000D03*
X134710000Y-52460000D03*
%TD*%
D15*
%TO.C,TP30*%
X149000000Y-89000000D03*
%TD*%
D11*
%TO.C,J9*%
X123030100Y-87834900D03*
X123030100Y-90374900D03*
%TD*%
%TO.C,J11*%
X114500000Y-71000000D03*
X114500000Y-68460000D03*
%TD*%
D18*
%TO.C,C11*%
X114500000Y-59750000D03*
D19*
X114500000Y-57250000D03*
%TD*%
D15*
%TO.C,TP37*%
X176500000Y-55500000D03*
%TD*%
D11*
%TO.C,J25*%
X187030100Y-124084900D03*
X187030100Y-126624900D03*
%TD*%
D15*
%TO.C,TP33*%
X116250000Y-77000000D03*
%TD*%
D16*
%TO.C,J7*%
X107040000Y-126710000D03*
X101960000Y-126710000D03*
X107040000Y-131790000D03*
X101960000Y-131790000D03*
%TD*%
D11*
%TO.C,J19*%
X149084900Y-76969900D03*
X151624900Y-76969900D03*
%TD*%
D17*
%TO.C,J6*%
X197650000Y-77675000D03*
X197650000Y-83325000D03*
%TD*%
D16*
%TO.C,J1*%
X107040000Y-60210000D03*
X101960000Y-60210000D03*
X107040000Y-65290000D03*
X101960000Y-65290000D03*
%TD*%
D11*
%TO.C,J20*%
X161500000Y-93040000D03*
X161500000Y-90500000D03*
%TD*%
D15*
%TO.C,TP36*%
X171250000Y-55500000D03*
%TD*%
D20*
%TO.C,SW1*%
X126000000Y-51750000D03*
X119200000Y-51750000D03*
%TD*%
D11*
%TO.C,J22*%
X167780100Y-126084900D03*
X167780100Y-128624900D03*
%TD*%
D15*
%TO.C,TP23*%
X141250000Y-71500000D03*
%TD*%
D10*
%TO.C,H4*%
X105250000Y-146000000D03*
%TD*%
D15*
%TO.C,TP4*%
X157000000Y-85250000D03*
%TD*%
D10*
%TO.C,H1*%
X194750000Y-55000000D03*
%TD*%
D15*
%TO.C,TP22*%
X129250000Y-77250000D03*
%TD*%
D11*
%TO.C,J21*%
X164500000Y-126000000D03*
X164500000Y-128540000D03*
%TD*%
D15*
%TO.C,TP26*%
X115000000Y-122000000D03*
%TD*%
%TO.C,TP8*%
X152250000Y-85250000D03*
%TD*%
D11*
%TO.C,J24*%
X183530100Y-124084900D03*
X183530100Y-126624900D03*
%TD*%
D16*
%TO.C,J15*%
X190460000Y-134040000D03*
X195540000Y-134040000D03*
X190460000Y-128960000D03*
X195540000Y-128960000D03*
%TD*%
D15*
%TO.C,TP3*%
X126750000Y-81500000D03*
%TD*%
D10*
%TO.C,H2*%
X194750000Y-146000000D03*
%TD*%
D15*
%TO.C,TP28*%
X135750000Y-106500000D03*
%TD*%
%TO.C,TP14*%
X120500000Y-77000000D03*
%TD*%
D21*
%TO.C,C29*%
X176500000Y-85250000D03*
D19*
X176500000Y-87750000D03*
%TD*%
D15*
%TO.C,TP24*%
X150500000Y-122000000D03*
%TD*%
%TO.C,TP20*%
X115000000Y-117500000D03*
%TD*%
D16*
%TO.C,J4*%
X190920000Y-101500000D03*
X196000000Y-101500000D03*
X190920000Y-96420000D03*
X196000000Y-96420000D03*
%TD*%
D21*
%TO.C,C16*%
X114000000Y-128000000D03*
D19*
X114000000Y-130500000D03*
%TD*%
D11*
%TO.C,J12*%
X126250000Y-117750000D03*
X126250000Y-115210000D03*
%TD*%
D15*
%TO.C,TP5*%
X110500000Y-89000000D03*
%TD*%
%TO.C,TP29*%
X162500000Y-116000000D03*
%TD*%
D22*
%TO.C,J5*%
X154675000Y-52850000D03*
X160325000Y-52850000D03*
%TD*%
D15*
%TO.C,TP32*%
X165250000Y-111750000D03*
%TD*%
D11*
%TO.C,J18*%
X158210000Y-77000000D03*
X160750000Y-77000000D03*
%TD*%
D22*
%TO.C,J17*%
X181175000Y-52850000D03*
X186825000Y-52850000D03*
%TD*%
D15*
%TO.C,TP27*%
X150500000Y-126250000D03*
%TD*%
%TO.C,TP2*%
X143000000Y-101250000D03*
%TD*%
D18*
%TO.C,C28*%
X166750000Y-63500000D03*
D19*
X166750000Y-61000000D03*
%TD*%
D15*
%TO.C,TP6*%
X169500000Y-97750000D03*
%TD*%
%TO.C,TP7*%
X162000000Y-109000000D03*
%TD*%
D21*
%TO.C,C30*%
X185000000Y-85250000D03*
D19*
X185000000Y-87750000D03*
%TD*%
D12*
%TO.C,J13*%
X102350000Y-83825000D03*
X102350000Y-78175000D03*
%TD*%
D16*
%TO.C,J3*%
X191000000Y-117500000D03*
X196080000Y-117500000D03*
X191000000Y-112420000D03*
X196080000Y-112420000D03*
%TD*%
D15*
%TO.C,TP31*%
X143000000Y-97000000D03*
%TD*%
M02*
