%TF.GenerationSoftware,KiCad,Pcbnew,10.0.6*%
%TF.CreationDate,2026-10-04T19:44:49-07:00*%
%TF.ProjectId,ldo_bringup_board_ee372,6c646f5f-6272-4696-9e67-75705f626f61,0*%
%TF.SameCoordinates,Original*%
%TF.FileFunction,Soldermask,Top*%
%TF.FilePolarity,Negative*%
%FSLAX46Y46*%
G04 Gerber Fmt 4.6, Leading zero omitted, Abs format (unit mm)*
G04 Created by KiCad (PCBNEW 10.0.6) date 2026-10-04 19:44:49*
%MOMM*%
%LPD*%
G01*
G04 APERTURE LIST*
G04 Aperture macros list*
%AMRoundRect*
0 Rectangle with rounded corners*
0 $1 Rounding radius*
0 $2 $3 $4 $5 $6 $7 $8 $9 X,Y pos of 4 corners*
0 Add a 4 corners polygon primitive as box body*
4,1,4,$2,$3,$4,$5,$6,$7,$8,$9,$2,$3,0*
0 Add four circle primitives for the rounded corners*
1,1,$1+$1,$2,$3*
1,1,$1+$1,$4,$5*
1,1,$1+$1,$6,$7*
1,1,$1+$1,$8,$9*
0 Add four rect primitives between the rounded corners*
20,1,$1+$1,$2,$3,$4,$5,0*
20,1,$1+$1,$4,$5,$6,$7,0*
20,1,$1+$1,$6,$7,$8,$9,0*
20,1,$1+$1,$8,$9,$2,$3,0*%
G04 Aperture macros list end*
%ADD10C,3.200000*%
%ADD11C,1.524000*%
%ADD12RoundRect,0.237500X0.237500X-0.250000X0.237500X0.250000X-0.237500X0.250000X-0.237500X-0.250000X0*%
%ADD13RoundRect,0.250000X-0.350000X-0.450000X0.350000X-0.450000X0.350000X0.450000X-0.350000X0.450000X0*%
%ADD14RoundRect,0.200000X0.200000X-0.750000X0.200000X0.750000X-0.200000X0.750000X-0.200000X-0.750000X0*%
%ADD15RoundRect,0.250000X0.337500X0.475000X-0.337500X0.475000X-0.337500X-0.475000X0.337500X-0.475000X0*%
%ADD16RoundRect,0.237500X-0.237500X0.250000X-0.237500X-0.250000X0.237500X-0.250000X0.237500X0.250000X0*%
%ADD17RoundRect,0.250000X-1.350000X0.385000X-1.350000X-0.385000X1.350000X-0.385000X1.350000X0.385000X0*%
%ADD18RoundRect,0.250000X-1.600000X0.425000X-1.600000X-0.425000X1.600000X-0.425000X1.600000X0.425000X0*%
%ADD19RoundRect,0.150000X-0.150000X0.825000X-0.150000X-0.825000X0.150000X-0.825000X0.150000X0.825000X0*%
%ADD20RoundRect,0.100000X-0.100000X0.900000X-0.100000X-0.900000X0.100000X-0.900000X0.100000X0.900000X0*%
%ADD21RoundRect,0.250000X-0.650000X0.412500X-0.650000X-0.412500X0.650000X-0.412500X0.650000X0.412500X0*%
%ADD22R,1.700000X1.700000*%
%ADD23C,1.700000*%
%ADD24RoundRect,0.250000X-0.337500X-0.475000X0.337500X-0.475000X0.337500X0.475000X-0.337500X0.475000X0*%
%ADD25RoundRect,0.250000X0.412500X0.650000X-0.412500X0.650000X-0.412500X-0.650000X0.412500X-0.650000X0*%
%ADD26RoundRect,0.250000X-0.450000X0.350000X-0.450000X-0.350000X0.450000X-0.350000X0.450000X0.350000X0*%
%ADD27C,2.800000*%
%ADD28RoundRect,0.250000X0.650000X-0.412500X0.650000X0.412500X-0.650000X0.412500X-0.650000X-0.412500X0*%
%ADD29C,2.550000*%
%ADD30RoundRect,0.100000X0.100000X-0.900000X0.100000X0.900000X-0.100000X0.900000X-0.100000X-0.900000X0*%
%ADD31RoundRect,0.250000X1.350000X-0.385000X1.350000X0.385000X-1.350000X0.385000X-1.350000X-0.385000X0*%
%ADD32RoundRect,0.250000X1.600000X-0.425000X1.600000X0.425000X-1.600000X0.425000X-1.600000X-0.425000X0*%
%ADD33RoundRect,0.200000X-0.750000X-0.200000X0.750000X-0.200000X0.750000X0.200000X-0.750000X0.200000X0*%
%ADD34RoundRect,0.250000X0.550000X-0.550000X0.550000X0.550000X-0.550000X0.550000X-0.550000X-0.550000X0*%
%ADD35C,1.600000*%
%ADD36C,0.900000*%
%ADD37RoundRect,0.250000X0.375000X1.000000X-0.375000X1.000000X-0.375000X-1.000000X0.375000X-1.000000X0*%
%ADD38RoundRect,0.150000X-0.825000X-0.150000X0.825000X-0.150000X0.825000X0.150000X-0.825000X0.150000X0*%
%ADD39RoundRect,0.250000X0.350000X0.450000X-0.350000X0.450000X-0.350000X-0.450000X0.350000X-0.450000X0*%
%ADD40RoundRect,0.237500X-0.250000X-0.237500X0.250000X-0.237500X0.250000X0.237500X-0.250000X0.237500X0*%
%ADD41RoundRect,0.250000X-0.475000X0.337500X-0.475000X-0.337500X0.475000X-0.337500X0.475000X0.337500X0*%
%ADD42RoundRect,0.250000X-0.412500X-0.650000X0.412500X-0.650000X0.412500X0.650000X-0.412500X0.650000X0*%
%ADD43RoundRect,0.250000X0.450000X-0.350000X0.450000X0.350000X-0.450000X0.350000X-0.450000X-0.350000X0*%
%ADD44RoundRect,0.237500X0.250000X0.237500X-0.250000X0.237500X-0.250000X-0.237500X0.250000X-0.237500X0*%
%ADD45RoundRect,0.250000X1.500000X0.650000X-1.500000X0.650000X-1.500000X-0.650000X1.500000X-0.650000X0*%
%ADD46RoundRect,0.250000X-0.550000X0.550000X-0.550000X-0.550000X0.550000X-0.550000X0.550000X0.550000X0*%
%ADD47RoundRect,0.250000X-1.450000X0.537500X-1.450000X-0.537500X1.450000X-0.537500X1.450000X0.537500X0*%
%ADD48RoundRect,0.250000X0.385000X1.350000X-0.385000X1.350000X-0.385000X-1.350000X0.385000X-1.350000X0*%
%ADD49RoundRect,0.250000X0.425000X1.600000X-0.425000X1.600000X-0.425000X-1.600000X0.425000X-1.600000X0*%
%ADD50RoundRect,0.237500X-0.237500X-0.237500X0.237500X-0.237500X0.237500X0.237500X-0.237500X0.237500X0*%
%ADD51RoundRect,0.075000X-0.350000X-0.075000X0.350000X-0.075000X0.350000X0.075000X-0.350000X0.075000X0*%
%ADD52RoundRect,0.075000X-0.075000X-0.350000X0.075000X-0.350000X0.075000X0.350000X-0.075000X0.350000X0*%
%ADD53RoundRect,0.250000X-1.500000X-0.650000X1.500000X-0.650000X1.500000X0.650000X-1.500000X0.650000X0*%
G04 APERTURE END LIST*
D10*
%TO.C,H3*%
X105250000Y-55000000D03*
%TD*%
D11*
%TO.C,J10*%
X138500000Y-65040000D03*
X138500000Y-62500000D03*
%TD*%
D12*
%TO.C,R25*%
X178500000Y-121412500D03*
X178500000Y-119587500D03*
%TD*%
D13*
%TO.C,R44*%
X168000000Y-69750000D03*
X170000000Y-69750000D03*
%TD*%
D14*
%TO.C,Q4*%
X180600000Y-112500000D03*
X182500000Y-112500000D03*
X181550000Y-109500000D03*
%TD*%
D15*
%TO.C,C25*%
X158040000Y-115830000D03*
X155965000Y-115830000D03*
%TD*%
D13*
%TO.C,R21*%
X164500000Y-106000000D03*
X166500000Y-106000000D03*
%TD*%
D16*
%TO.C,R30*%
X156500000Y-112175000D03*
X156500000Y-114000000D03*
%TD*%
D12*
%TO.C,R26*%
X182500000Y-121412500D03*
X182500000Y-119587500D03*
%TD*%
D13*
%TO.C,R39*%
X145500000Y-86000000D03*
X147500000Y-86000000D03*
%TD*%
D17*
%TO.C,J14*%
X102100000Y-96000000D03*
D18*
X102350000Y-98825000D03*
X102350000Y-93175000D03*
%TD*%
D19*
%TO.C,U7*%
X150367500Y-106417500D03*
X149097500Y-106417500D03*
X147827500Y-106417500D03*
X146557500Y-106417500D03*
X146557500Y-111367500D03*
X147827500Y-111367500D03*
X149097500Y-111367500D03*
X150367500Y-111367500D03*
%TD*%
D16*
%TO.C,R42*%
X188250000Y-67087500D03*
X188250000Y-68912500D03*
%TD*%
D20*
%TO.C,U3*%
X135720000Y-90790000D03*
X135080000Y-90790000D03*
X134420000Y-90790000D03*
X133780000Y-90790000D03*
X133780000Y-94210000D03*
X134420000Y-94210000D03*
X135080000Y-94210000D03*
X135720000Y-94210000D03*
%TD*%
D21*
%TO.C,C3*%
X157500000Y-99000000D03*
X157500000Y-102125000D03*
%TD*%
D12*
%TO.C,R49*%
X187750000Y-64000000D03*
X187750000Y-62175000D03*
%TD*%
D22*
%TO.C,U2*%
X121790000Y-147740000D03*
D23*
X124330000Y-147740000D03*
X126870000Y-147740000D03*
X129410000Y-147740000D03*
X131950000Y-147740000D03*
X134490000Y-147740000D03*
X137030000Y-147740000D03*
X139570000Y-147740000D03*
X142110000Y-147740000D03*
X144650000Y-147740000D03*
X147190000Y-147740000D03*
X149730000Y-147740000D03*
X152270000Y-147740000D03*
X154810000Y-147740000D03*
X157350000Y-147740000D03*
X159890000Y-147740000D03*
X162430000Y-147740000D03*
X164970000Y-147740000D03*
X167510000Y-147740000D03*
X170050000Y-147740000D03*
X172590000Y-147740000D03*
X175130000Y-147740000D03*
X177670000Y-147740000D03*
X180210000Y-147740000D03*
X180210000Y-132500000D03*
X177670000Y-132500000D03*
X175130000Y-132500000D03*
X172590000Y-132500000D03*
X170050000Y-132500000D03*
X167510000Y-132500000D03*
X164970000Y-132500000D03*
X162430000Y-132500000D03*
X159890000Y-132500000D03*
X157350000Y-132500000D03*
X154810000Y-132500000D03*
X152270000Y-132500000D03*
X149730000Y-132500000D03*
X147190000Y-132500000D03*
X144650000Y-132500000D03*
X142110000Y-132500000D03*
X139570000Y-132500000D03*
X137030000Y-132500000D03*
X134490000Y-132500000D03*
X131950000Y-132500000D03*
X129410000Y-132500000D03*
X126870000Y-132500000D03*
X124330000Y-132500000D03*
X121790000Y-132500000D03*
%TD*%
D24*
%TO.C,C19*%
X121962500Y-129500000D03*
X124037500Y-129500000D03*
%TD*%
D25*
%TO.C,C23*%
X175562500Y-69750000D03*
X172437500Y-69750000D03*
%TD*%
D26*
%TO.C,R9*%
X176500000Y-115000000D03*
X176500000Y-117000000D03*
%TD*%
D27*
%TO.C,TP25*%
X131500000Y-106500000D03*
%TD*%
D28*
%TO.C,C10*%
X192750000Y-86062500D03*
X192750000Y-82937500D03*
%TD*%
D14*
%TO.C,Q2*%
X172600000Y-112500000D03*
X174500000Y-112500000D03*
X173550000Y-109500000D03*
%TD*%
D27*
%TO.C,TP1*%
X137000000Y-71500000D03*
%TD*%
D26*
%TO.C,R11*%
X180500000Y-115000000D03*
X180500000Y-117000000D03*
%TD*%
D27*
%TO.C,TP21*%
X169500000Y-93250000D03*
%TD*%
D29*
%TO.C,J8*%
X107040000Y-112710000D03*
X101960000Y-112710000D03*
X107040000Y-117790000D03*
X101960000Y-117790000D03*
%TD*%
D27*
%TO.C,TP35*%
X165750000Y-55500000D03*
%TD*%
D30*
%TO.C,U4*%
X155780000Y-122210000D03*
X156420000Y-122210000D03*
X157080000Y-122210000D03*
X157720000Y-122210000D03*
X157720000Y-118790000D03*
X157080000Y-118790000D03*
X156420000Y-118790000D03*
X155780000Y-118790000D03*
%TD*%
D11*
%TO.C,J23*%
X171030100Y-126084900D03*
X171030100Y-128624900D03*
%TD*%
D26*
%TO.C,R10*%
X177500000Y-104500000D03*
X177500000Y-106500000D03*
%TD*%
D31*
%TO.C,J16*%
X197900000Y-65325000D03*
D32*
X197650000Y-62500000D03*
X197650000Y-68150000D03*
%TD*%
D29*
%TO.C,J2*%
X139790000Y-57540000D03*
X139790000Y-52460000D03*
X134710000Y-57540000D03*
X134710000Y-52460000D03*
%TD*%
D15*
%TO.C,C13*%
X135750000Y-86000000D03*
X133675000Y-86000000D03*
%TD*%
D27*
%TO.C,TP30*%
X149000000Y-89000000D03*
%TD*%
D11*
%TO.C,J9*%
X123030100Y-87834900D03*
X123030100Y-90374900D03*
%TD*%
%TO.C,J11*%
X114500000Y-71000000D03*
X114500000Y-68460000D03*
%TD*%
D12*
%TO.C,R43*%
X188750000Y-72412500D03*
X188750000Y-70587500D03*
%TD*%
D33*
%TO.C,Q6*%
X128250000Y-71550000D03*
X128250000Y-73450000D03*
X131250000Y-72500000D03*
%TD*%
D26*
%TO.C,R5*%
X169500000Y-104500000D03*
X169500000Y-106500000D03*
%TD*%
D34*
%TO.C,C11*%
X114500000Y-59750000D03*
D35*
X114500000Y-57250000D03*
%TD*%
D27*
%TO.C,TP37*%
X176500000Y-55500000D03*
%TD*%
D16*
%TO.C,R29*%
X158000000Y-112175000D03*
X158000000Y-114000000D03*
%TD*%
D13*
%TO.C,R20*%
X140250000Y-77500000D03*
X142250000Y-77500000D03*
%TD*%
D11*
%TO.C,J25*%
X187030100Y-124084900D03*
X187030100Y-126624900D03*
%TD*%
D27*
%TO.C,TP33*%
X116250000Y-77000000D03*
%TD*%
D16*
%TO.C,R37*%
X189500000Y-79000000D03*
X189500000Y-80825000D03*
%TD*%
D29*
%TO.C,J7*%
X107040000Y-126710000D03*
X101960000Y-126710000D03*
X107040000Y-131790000D03*
X101960000Y-131790000D03*
%TD*%
D11*
%TO.C,J19*%
X149084900Y-76969900D03*
X151624900Y-76969900D03*
%TD*%
D31*
%TO.C,J6*%
X197900000Y-80500000D03*
D32*
X197650000Y-77675000D03*
X197650000Y-83325000D03*
%TD*%
D29*
%TO.C,J1*%
X107040000Y-60210000D03*
X101960000Y-60210000D03*
X107040000Y-65290000D03*
X101960000Y-65290000D03*
%TD*%
D24*
%TO.C,C18*%
X121962500Y-127250000D03*
X124037500Y-127250000D03*
%TD*%
D11*
%TO.C,J20*%
X161500000Y-93040000D03*
X161500000Y-90500000D03*
%TD*%
D16*
%TO.C,R27*%
X133750000Y-96337500D03*
X133750000Y-98162500D03*
%TD*%
D27*
%TO.C,TP36*%
X171250000Y-55500000D03*
%TD*%
D26*
%TO.C,R14*%
X184500000Y-115000000D03*
X184500000Y-117000000D03*
%TD*%
D36*
%TO.C,SW1*%
X126000000Y-51750000D03*
X119200000Y-51750000D03*
D37*
X125100000Y-54500000D03*
X122600000Y-54500000D03*
X120100000Y-54500000D03*
%TD*%
D11*
%TO.C,J22*%
X167780100Y-126084900D03*
X167780100Y-128624900D03*
%TD*%
D13*
%TO.C,R1*%
X157500000Y-104250000D03*
X159500000Y-104250000D03*
%TD*%
D27*
%TO.C,TP23*%
X141250000Y-71500000D03*
%TD*%
D10*
%TO.C,H4*%
X105250000Y-146000000D03*
%TD*%
D38*
%TO.C,U6*%
X118275000Y-109095000D03*
X118275000Y-110365000D03*
X118275000Y-111635000D03*
X118275000Y-112905000D03*
X123225000Y-112905000D03*
X123225000Y-111635000D03*
X123225000Y-110365000D03*
X123225000Y-109095000D03*
%TD*%
D16*
%TO.C,R32*%
X142250000Y-85087500D03*
X142250000Y-86912500D03*
%TD*%
D27*
%TO.C,TP4*%
X157000000Y-85250000D03*
%TD*%
D39*
%TO.C,R19*%
X158250000Y-110250000D03*
X156250000Y-110250000D03*
%TD*%
D15*
%TO.C,C14*%
X135825000Y-88250000D03*
X133750000Y-88250000D03*
%TD*%
D24*
%TO.C,C22*%
X156212500Y-124500000D03*
X158287500Y-124500000D03*
%TD*%
D10*
%TO.C,H1*%
X194750000Y-55000000D03*
%TD*%
D27*
%TO.C,TP22*%
X129250000Y-77250000D03*
%TD*%
D24*
%TO.C,C27*%
X115925000Y-106250000D03*
X118000000Y-106250000D03*
%TD*%
D11*
%TO.C,J21*%
X164500000Y-126000000D03*
X164500000Y-128540000D03*
%TD*%
D13*
%TO.C,R4*%
X140250000Y-79750000D03*
X142250000Y-79750000D03*
%TD*%
D12*
%TO.C,R53*%
X134510000Y-127825000D03*
X134510000Y-126000000D03*
%TD*%
D27*
%TO.C,TP26*%
X115000000Y-122000000D03*
%TD*%
D38*
%TO.C,U5*%
X180275000Y-67190000D03*
X180275000Y-68460000D03*
X180275000Y-69730000D03*
X180275000Y-71000000D03*
X180275000Y-72270000D03*
X180275000Y-73540000D03*
X180275000Y-74810000D03*
X185225000Y-74810000D03*
X185225000Y-73540000D03*
X185225000Y-72270000D03*
X185225000Y-71000000D03*
X185225000Y-69730000D03*
X185225000Y-68460000D03*
X185225000Y-67190000D03*
%TD*%
D27*
%TO.C,TP8*%
X152250000Y-85250000D03*
%TD*%
D24*
%TO.C,C9*%
X154000000Y-94000000D03*
X156075000Y-94000000D03*
%TD*%
D12*
%TO.C,R51*%
X129490000Y-127825000D03*
X129490000Y-126000000D03*
%TD*%
D40*
%TO.C,R28*%
X160127500Y-119830000D03*
X161952500Y-119830000D03*
%TD*%
%TO.C,R40*%
X135250000Y-111250000D03*
X137075000Y-111250000D03*
%TD*%
D24*
%TO.C,C26*%
X115962500Y-104000000D03*
X118037500Y-104000000D03*
%TD*%
D41*
%TO.C,C34*%
X177750000Y-73275000D03*
X177750000Y-75350000D03*
%TD*%
D24*
%TO.C,C7*%
X153962500Y-91500000D03*
X156037500Y-91500000D03*
%TD*%
D12*
%TO.C,R52*%
X132000000Y-127825000D03*
X132000000Y-126000000D03*
%TD*%
D11*
%TO.C,J24*%
X183530100Y-124084900D03*
X183530100Y-126624900D03*
%TD*%
D12*
%TO.C,R23*%
X170500000Y-121412500D03*
X170500000Y-119587500D03*
%TD*%
D42*
%TO.C,C20*%
X156125000Y-129000000D03*
X159250000Y-129000000D03*
%TD*%
D43*
%TO.C,R45*%
X137250000Y-127750000D03*
X137250000Y-125750000D03*
%TD*%
D29*
%TO.C,J15*%
X190460000Y-134040000D03*
X195540000Y-134040000D03*
X190460000Y-128960000D03*
X195540000Y-128960000D03*
%TD*%
D26*
%TO.C,R7*%
X168500000Y-115000000D03*
X168500000Y-117000000D03*
%TD*%
D27*
%TO.C,TP3*%
X126750000Y-81500000D03*
%TD*%
D44*
%TO.C,R33*%
X173825000Y-63750000D03*
X172000000Y-63750000D03*
%TD*%
D24*
%TO.C,C24*%
X140212500Y-90000000D03*
X142287500Y-90000000D03*
%TD*%
D21*
%TO.C,C8*%
X154750000Y-60687500D03*
X154750000Y-63812500D03*
%TD*%
D26*
%TO.C,R8*%
X172500000Y-115000000D03*
X172500000Y-117000000D03*
%TD*%
D43*
%TO.C,R47*%
X142250000Y-127750000D03*
X142250000Y-125750000D03*
%TD*%
D39*
%TO.C,R54*%
X144750000Y-105500000D03*
X142750000Y-105500000D03*
%TD*%
%TO.C,R35*%
X177500000Y-80750000D03*
X175500000Y-80750000D03*
%TD*%
D10*
%TO.C,H2*%
X194750000Y-146000000D03*
%TD*%
D40*
%TO.C,R36*%
X179587500Y-80750000D03*
X181412500Y-80750000D03*
%TD*%
D14*
%TO.C,Q3*%
X176600000Y-112500000D03*
X178500000Y-112500000D03*
X177550000Y-109500000D03*
%TD*%
D42*
%TO.C,C6*%
X153937500Y-89000000D03*
X157062500Y-89000000D03*
%TD*%
D14*
%TO.C,Q5*%
X184600000Y-112500000D03*
X186500000Y-112500000D03*
X185550000Y-109500000D03*
%TD*%
D40*
%TO.C,R41*%
X171675000Y-72000000D03*
X173500000Y-72000000D03*
%TD*%
D27*
%TO.C,TP28*%
X135750000Y-106500000D03*
%TD*%
%TO.C,TP14*%
X120500000Y-77000000D03*
%TD*%
D45*
%TO.C,D2*%
X109500000Y-107500000D03*
X104500000Y-107500000D03*
%TD*%
D24*
%TO.C,C21*%
X156212500Y-126750000D03*
X158287500Y-126750000D03*
%TD*%
D40*
%TO.C,R17*%
X124587500Y-76000000D03*
X126412500Y-76000000D03*
%TD*%
D16*
%TO.C,R31*%
X140250000Y-85087500D03*
X140250000Y-86912500D03*
%TD*%
D46*
%TO.C,C29*%
X176500000Y-85250000D03*
D35*
X176500000Y-87750000D03*
%TD*%
D27*
%TO.C,TP24*%
X150500000Y-122000000D03*
%TD*%
D26*
%TO.C,R2*%
X131500000Y-62250000D03*
X131500000Y-64250000D03*
%TD*%
D40*
%TO.C,R34*%
X131587500Y-111250000D03*
X133412500Y-111250000D03*
%TD*%
D47*
%TO.C,C1*%
X164000000Y-97862500D03*
X164000000Y-102137500D03*
%TD*%
D27*
%TO.C,TP20*%
X115000000Y-117500000D03*
%TD*%
D29*
%TO.C,J4*%
X190920000Y-101500000D03*
X196000000Y-101500000D03*
X190920000Y-96420000D03*
X196000000Y-96420000D03*
%TD*%
D40*
%TO.C,R15*%
X182087500Y-65000000D03*
X183912500Y-65000000D03*
%TD*%
D46*
%TO.C,C16*%
X114000000Y-128000000D03*
D35*
X114000000Y-130500000D03*
%TD*%
D42*
%TO.C,C37*%
X181375000Y-57750000D03*
X184500000Y-57750000D03*
%TD*%
D26*
%TO.C,R12*%
X181500000Y-104500000D03*
X181500000Y-106500000D03*
%TD*%
D11*
%TO.C,J12*%
X126250000Y-117750000D03*
X126250000Y-115210000D03*
%TD*%
D40*
%TO.C,R18*%
X121087500Y-71500000D03*
X122912500Y-71500000D03*
%TD*%
D27*
%TO.C,TP5*%
X110500000Y-89000000D03*
%TD*%
%TO.C,TP29*%
X162500000Y-116000000D03*
%TD*%
D48*
%TO.C,J5*%
X157500000Y-52600000D03*
D49*
X154675000Y-52850000D03*
X160325000Y-52850000D03*
%TD*%
D42*
%TO.C,C17*%
X121937500Y-125000000D03*
X125062500Y-125000000D03*
%TD*%
D14*
%TO.C,Q1*%
X168600000Y-112500000D03*
X170500000Y-112500000D03*
X169550000Y-109500000D03*
%TD*%
D27*
%TO.C,TP32*%
X165250000Y-111750000D03*
%TD*%
D42*
%TO.C,C36*%
X189875000Y-62000000D03*
X193000000Y-62000000D03*
%TD*%
D21*
%TO.C,C4*%
X160500000Y-98937500D03*
X160500000Y-102062500D03*
%TD*%
D11*
%TO.C,J18*%
X158210000Y-77000000D03*
X160750000Y-77000000D03*
%TD*%
D48*
%TO.C,J17*%
X184000000Y-52600000D03*
D49*
X181175000Y-52850000D03*
X186825000Y-52850000D03*
%TD*%
D27*
%TO.C,TP27*%
X150500000Y-126250000D03*
%TD*%
D21*
%TO.C,C33*%
X175500000Y-73250000D03*
X175500000Y-76375000D03*
%TD*%
D27*
%TO.C,TP2*%
X143000000Y-101250000D03*
%TD*%
D15*
%TO.C,C31*%
X150632500Y-114867500D03*
X148557500Y-114867500D03*
%TD*%
D26*
%TO.C,R13*%
X185500000Y-104500000D03*
X185500000Y-106500000D03*
%TD*%
D15*
%TO.C,C2*%
X149000000Y-93000000D03*
X146925000Y-93000000D03*
%TD*%
D34*
%TO.C,C28*%
X166750000Y-63500000D03*
D35*
X166750000Y-61000000D03*
%TD*%
D27*
%TO.C,TP6*%
X169500000Y-97750000D03*
%TD*%
D12*
%TO.C,R24*%
X174500000Y-121412500D03*
X174500000Y-119587500D03*
%TD*%
D13*
%TO.C,R16*%
X176250000Y-63750000D03*
X178250000Y-63750000D03*
%TD*%
D27*
%TO.C,TP7*%
X162000000Y-109000000D03*
%TD*%
D46*
%TO.C,C30*%
X185000000Y-85250000D03*
D35*
X185000000Y-87750000D03*
%TD*%
D39*
%TO.C,R3*%
X158250000Y-108250000D03*
X156250000Y-108250000D03*
%TD*%
D17*
%TO.C,J13*%
X102100000Y-81000000D03*
D18*
X102350000Y-83825000D03*
X102350000Y-78175000D03*
%TD*%
D43*
%TO.C,R46*%
X139750000Y-127750000D03*
X139750000Y-125750000D03*
%TD*%
D15*
%TO.C,C15*%
X162040000Y-122330000D03*
X159965000Y-122330000D03*
%TD*%
D29*
%TO.C,J3*%
X191000000Y-117500000D03*
X196080000Y-117500000D03*
X191000000Y-112420000D03*
X196080000Y-112420000D03*
%TD*%
D25*
%TO.C,C5*%
X135812500Y-83750000D03*
X132687500Y-83750000D03*
%TD*%
D15*
%TO.C,C12*%
X134575000Y-101000000D03*
X132500000Y-101000000D03*
%TD*%
D50*
%TO.C,U1*%
X148087500Y-97312500D03*
X148087500Y-98587500D03*
X148087500Y-99862500D03*
X148087500Y-101137500D03*
X149362500Y-97312500D03*
X149362500Y-98587500D03*
X149362500Y-99862500D03*
X149362500Y-101137500D03*
X150637500Y-97312500D03*
X150637500Y-98587500D03*
X150637500Y-99862500D03*
X150637500Y-101137500D03*
X151912500Y-97312500D03*
X151912500Y-98587500D03*
X151912500Y-99862500D03*
X151912500Y-101137500D03*
D51*
X146550000Y-96950000D03*
X146550000Y-97600000D03*
X146550000Y-98250000D03*
X146550000Y-98900000D03*
X146550000Y-99550000D03*
X146550000Y-100200000D03*
X146550000Y-100850000D03*
X146550000Y-101500000D03*
D52*
X147725000Y-102675000D03*
X148375000Y-102675000D03*
X149025000Y-102675000D03*
X149675000Y-102675000D03*
X150325000Y-102675000D03*
X150975000Y-102675000D03*
X151625000Y-102675000D03*
X152275000Y-102675000D03*
D51*
X153450000Y-101500000D03*
X153450000Y-100850000D03*
X153450000Y-100200000D03*
X153450000Y-99550000D03*
X153450000Y-98900000D03*
X153450000Y-98250000D03*
X153450000Y-97600000D03*
X153450000Y-96950000D03*
D52*
X152275000Y-95775000D03*
X151625000Y-95775000D03*
X150975000Y-95775000D03*
X150325000Y-95775000D03*
X149675000Y-95775000D03*
X149025000Y-95775000D03*
X148375000Y-95775000D03*
X147725000Y-95775000D03*
%TD*%
D26*
%TO.C,R38*%
X189500000Y-75000000D03*
X189500000Y-77000000D03*
%TD*%
D12*
%TO.C,R50*%
X181500000Y-62000000D03*
X181500000Y-60175000D03*
%TD*%
D27*
%TO.C,TP31*%
X143000000Y-97000000D03*
%TD*%
D53*
%TO.C,D1*%
X111500000Y-82500000D03*
X116500000Y-82500000D03*
%TD*%
D43*
%TO.C,R48*%
X144750000Y-127750000D03*
X144750000Y-125750000D03*
%TD*%
D28*
%TO.C,C35*%
X190750000Y-69062500D03*
X190750000Y-65937500D03*
%TD*%
D26*
%TO.C,R6*%
X173500000Y-104500000D03*
X173500000Y-106500000D03*
%TD*%
D12*
%TO.C,R22*%
X166500000Y-121412500D03*
X166500000Y-119587500D03*
%TD*%
M02*
