M48
; DRILL file KiCad 10.0.6 date 2026-10-04T19:46:13
; FORMAT={-:-/ absolute / metric / decimal}
; #@! TF.CreationDate,2026-10-04T19:46:13-07:00
; #@! TF.GenerationSoftware,Kicad,Pcbnew,10.0.6
; #@! TF.FileFunction,Plated,1,4,PTH
FMAT,2
METRIC
; #@! TA.AperFunction,Plated,PTH,ViaDrill
T1C0.300
; #@! TA.AperFunction,Plated,PTH,ComponentDrill
T2C0.300
; #@! TA.AperFunction,Plated,PTH,ViaDrill
T3C0.600
; #@! TA.AperFunction,Plated,PTH,ComponentDrill
T4C0.800
; #@! TA.AperFunction,Plated,PTH,ComponentDrill
T5C1.000
; #@! TA.AperFunction,Plated,PTH,ComponentDrill
T6C1.016
; #@! TA.AperFunction,Plated,PTH,ComponentDrill
T7C1.600
; #@! TA.AperFunction,Plated,PTH,ComponentDrill
T8C1.700
%
G90
G05
T1
X102.0Y-107.5
X102.4Y-52.9
X102.4Y-56.65
X102.4Y-67.9
X102.4Y-72.9
X102.4Y-87.9
X102.4Y-102.9
X102.4Y-122.9
X102.4Y-137.9
X102.4Y-142.9
X102.4Y-147.9
X103.65Y-110.4
X104.875Y-97.401
X104.9Y-70.4
X104.9Y-120.4
X104.9Y-129.15
X104.9Y-135.4
X104.9Y-140.4
X105.25Y-96.0
X105.325Y-83.825
X105.4Y-78.175
X105.425Y-93.175
X105.5Y-98.825
X106.15Y-57.9
X106.81Y-80.797
X107.4Y-52.9
X107.4Y-67.9
X107.4Y-72.9
X107.4Y-77.9
X107.4Y-102.9
X107.4Y-122.9
X107.4Y-137.9
X107.4Y-142.9
X107.4Y-147.9
X108.65Y-115.4
X109.9Y-55.4
X109.9Y-60.4
X109.9Y-75.4
X109.9Y-85.4
X109.9Y-95.4
X109.9Y-120.4
X109.9Y-135.4
X109.9Y-140.4
X109.9Y-145.4
X110.5Y-91.75
X111.15Y-67.9
X111.15Y-126.65
X112.0Y-110.25
X112.4Y-52.9
X112.4Y-57.9
X112.4Y-62.9
X112.4Y-72.9
X112.4Y-77.9
X112.4Y-92.9
X112.4Y-97.9
X112.4Y-112.9
X112.4Y-117.9
X112.4Y-122.9
X112.4Y-132.9
X112.4Y-137.9
X112.4Y-142.9
X112.4Y-147.9
X113.65Y-85.4
X114.5Y-104.0
X114.9Y-65.4
X114.9Y-80.4
X114.9Y-90.4
X114.9Y-95.4
X114.9Y-100.4
X114.9Y-125.4
X114.9Y-140.4
X114.9Y-145.4
X116.15Y-72.9
X117.4Y-52.9
X117.4Y-57.9
X117.4Y-62.9
X117.4Y-67.9
X117.4Y-87.9
X117.4Y-92.9
X117.4Y-97.9
X117.4Y-117.9
X117.4Y-127.9
X117.4Y-132.9
X117.4Y-137.9
X117.4Y-142.9
X117.4Y-147.9
X118.65Y-121.65
X119.25Y-82.5
X119.9Y-60.4
X119.9Y-65.4
X119.9Y-72.9
X119.9Y-100.4
X119.9Y-115.4
X119.9Y-135.4
X119.9Y-140.4
X120.1Y-56.75
X121.15Y-85.4
X121.15Y-89.15
X121.15Y-92.9
X121.275Y-106.494
X121.737Y-122.763
X122.0Y-107.75
X122.125Y-118.266
X122.4Y-62.9
X122.4Y-67.9
X122.4Y-97.9
X122.4Y-102.9
X122.4Y-137.9
X122.4Y-142.9
X123.03Y-92.75
X123.5Y-114.0
X124.48Y-92.75
X124.9Y-65.4
X124.9Y-89.15
X124.9Y-140.4
X124.9Y-145.4
X125.744Y-85.225
X126.85Y-59.0
X127.0Y-84.5
X127.008Y-88.508
X127.4Y-52.9
X127.4Y-57.9
X127.4Y-67.9
X127.4Y-77.9
X127.4Y-137.9
X127.4Y-142.9
X128.0Y-75.25
X128.458Y-88.508
X128.65Y-92.9
X128.65Y-96.65
X128.65Y-101.65
X128.65Y-105.4
X128.65Y-109.15
X129.9Y-60.4
X129.9Y-80.4
X129.9Y-135.4
X129.9Y-140.4
X129.9Y-145.4
X130.5Y-125.25
X130.994Y-74.475
X131.0Y-120.25
X131.15Y-52.9
X131.15Y-56.65
X131.15Y-99.15
X132.125Y-102.375
X132.25Y-73.75
X132.4Y-67.9
X132.4Y-92.9
X132.4Y-112.9
X132.4Y-137.9
X132.54Y-90.79
X133.65Y-64.15
X133.65Y-141.65
X133.797Y-80.19
X134.099Y-117.125
X134.9Y-75.4
X134.9Y-135.4
X135.5Y-117.5
X135.81Y-109.047
X136.125Y-124.125
X136.15Y-60.4
X136.15Y-139.15
X137.0Y-117.5
X137.4Y-55.4
X137.4Y-77.9
X137.4Y-81.65
X138.625Y-86.516
X138.65Y-67.9
X138.65Y-135.4
X138.75Y-117.5
X141.15Y-104.15
X141.15Y-107.9
X141.375Y-124.125
X142.0Y-117.25
X142.0Y-120.25
X142.4Y-52.9
X142.4Y-57.9
X142.4Y-62.9
X142.4Y-67.9
X142.4Y-135.4
X143.901Y-123.875
X144.25Y-119.25
X144.9Y-55.4
X144.9Y-60.4
X144.9Y-65.4
X144.9Y-70.4
X144.9Y-75.4
X144.9Y-145.4
X145.165Y-90.691
X145.275Y-108.25
X145.5Y-93.0
X145.5Y-98.5
X145.5Y-100.5
X145.54Y-89.29
X146.15Y-135.4
X146.242Y-79.758
X146.5Y-94.585
X147.058Y-114.25
X147.175Y-108.25
X147.25Y-104.75
X147.4Y-52.9
X147.4Y-57.9
X147.4Y-62.9
X147.4Y-67.9
X147.4Y-72.9
X147.4Y-127.9
X147.4Y-142.9
X147.5Y-103.75
X148.0Y-123.75
X148.275Y-94.75
X148.65Y-119.15
X148.75Y-108.25
X149.025Y-103.5
X149.75Y-55.25
X149.9Y-60.4
X149.9Y-65.4
X149.9Y-70.4
X149.9Y-130.4
X149.9Y-145.4
X150.25Y-74.25
X150.25Y-79.75
X150.5Y-82.25
X151.15Y-52.9
X151.15Y-134.15
X151.25Y-92.559
X152.0Y-103.75
X152.013Y-124.513
X152.4Y-57.9
X152.4Y-62.9
X152.4Y-67.9
X152.4Y-72.9
X152.4Y-119.15
X152.4Y-122.9
X152.4Y-127.9
X152.4Y-142.9
X152.5Y-116.0
X153.325Y-112.575
X153.325Y-114.5
X153.412Y-111.087
X153.6Y-103.75
X154.0Y-79.75
X154.25Y-107.75
X154.25Y-122.75
X154.5Y-97.5
X154.5Y-101.5
X154.6Y-56.0
X154.9Y-70.4
X154.9Y-75.4
X154.9Y-135.4
X154.941Y-112.191
X155.0Y-110.25
X155.25Y-82.25
X156.5Y-66.25
X156.625Y-78.516
X157.4Y-59.15
X157.4Y-62.9
X157.4Y-67.9
X157.4Y-72.9
X158.0Y-93.75
X158.75Y-122.25
X159.75Y-107.75
X159.9Y-65.4
X159.9Y-80.4
X160.0Y-72.75
X160.25Y-56.0
X160.25Y-85.0
X160.25Y-87.75
X160.25Y-96.0
X160.75Y-104.25
X161.15Y-134.15
X161.15Y-144.15
X162.4Y-57.9
X162.4Y-62.9
X162.4Y-67.9
X162.4Y-72.9
X162.4Y-82.9
X162.4Y-86.65
X162.4Y-112.9
X163.65Y-52.9
X164.9Y-65.4
X164.9Y-117.9
X164.9Y-144.15
X166.0Y-109.0
X166.15Y-69.15
X166.15Y-72.9
X166.15Y-134.15
X167.0Y-87.0
X167.0Y-107.75
X167.4Y-52.9
X167.4Y-57.9
X167.4Y-82.9
X167.4Y-92.9
X167.4Y-100.4
X168.5Y-119.0
X168.65Y-55.4
X168.65Y-65.4
X168.65Y-79.15
X168.65Y-144.15
X169.0Y-89.5
X169.9Y-71.65
X169.9Y-75.4
X169.9Y-85.4
X169.9Y-135.4
X170.5Y-114.5
X171.5Y-102.95
X171.75Y-120.25
X172.0Y-60.5
X172.4Y-52.9
X172.4Y-57.9
X172.4Y-65.4
X172.4Y-82.9
X172.4Y-87.9
X172.4Y-92.9
X172.4Y-144.15
X172.5Y-119.0
X173.0Y-129.0
X173.5Y-78.0
X173.65Y-55.4
X173.65Y-135.4
X174.25Y-124.0
X174.5Y-114.5
X174.9Y-95.4
X175.25Y-124.0
X175.761Y-120.25
X176.15Y-61.65
X176.15Y-82.9
X176.5Y-90.5
X176.5Y-102.95
X176.5Y-119.0
X177.4Y-52.9
X177.4Y-57.9
X177.4Y-92.9
X177.4Y-142.9
X178.5Y-114.5
X179.0Y-55.5
X179.75Y-120.25
X179.9Y-85.4
X179.9Y-90.4
X179.9Y-95.4
X179.9Y-145.4
X180.5Y-119.0
X181.0Y-63.25
X181.15Y-124.15
X181.175Y-55.675
X181.25Y-102.95
X182.4Y-82.9
X182.4Y-87.9
X182.4Y-92.9
X182.4Y-142.9
X182.4Y-147.9
X182.5Y-114.5
X182.75Y-63.25
X183.5Y-128.75
X183.53Y-76.18
X183.65Y-97.9
X183.65Y-137.9
X184.5Y-119.0
X184.9Y-60.4
X184.9Y-79.15
X184.9Y-145.4
X185.0Y-90.5
X185.547Y-64.31
X186.25Y-102.95
X186.5Y-114.5
X186.825Y-55.675
X187.0Y-128.75
X187.4Y-57.9
X187.4Y-87.9
X187.4Y-97.9
X187.4Y-107.9
X187.4Y-117.9
X187.4Y-132.9
X187.4Y-137.9
X187.4Y-142.9
X187.4Y-147.9
X187.5Y-70.25
X188.65Y-92.9
X188.65Y-111.65
X189.0Y-73.5
X189.0Y-106.25
X189.487Y-64.263
X189.5Y-104.25
X189.9Y-82.9
X189.9Y-120.4
X189.9Y-140.4
X189.9Y-145.4
X192.0Y-64.75
X192.4Y-52.9
X192.4Y-57.9
X192.4Y-72.9
X192.4Y-77.9
X192.4Y-92.9
X192.4Y-104.15
X192.4Y-107.9
X192.4Y-122.9
X192.4Y-137.9
X192.4Y-142.9
X192.4Y-147.9
X193.65Y-87.9
X193.65Y-119.15
X194.75Y-77.675
X194.75Y-83.325
X194.825Y-62.5
X194.825Y-68.15
X194.9Y-125.4
X194.9Y-140.4
X196.15Y-104.15
X197.4Y-52.9
X197.4Y-57.9
X197.4Y-72.9
X197.4Y-87.9
X197.4Y-92.9
X197.4Y-107.9
X197.4Y-115.4
X197.4Y-122.9
X197.4Y-137.9
X197.4Y-142.9
X197.4Y-147.9
X198.65Y-96.65
X198.65Y-100.4
X198.65Y-111.65
X198.65Y-119.15
X198.65Y-126.65
X198.65Y-130.4
X198.65Y-134.15
T2
X148.725Y-97.95
X148.725Y-99.225
X148.725Y-100.5
X150.0Y-97.95
X150.0Y-99.225
X150.0Y-100.5
X151.275Y-97.95
X151.275Y-99.225
X151.275Y-100.5
T3
X108.5Y-81.25
X110.25Y-110.25
X114.0Y-133.682
X114.5Y-54.0
X118.0Y-131.25
X120.5Y-124.0
X123.0Y-116.75
X125.1Y-59.0
X127.0Y-122.25
X131.0Y-85.25
X131.0Y-122.0
X134.25Y-78.5
X137.5Y-109.5
X137.75Y-85.0
X144.492Y-79.758
X145.25Y-117.0
X151.022Y-94.272
X152.275Y-90.5
X153.25Y-125.75
X154.75Y-66.25
X155.75Y-77.0
X155.937Y-106.563
X158.0Y-91.75
X158.75Y-106.0
X160.0Y-125.75
X171.75Y-78.0
X176.25Y-78.0
X177.75Y-71.5
X178.25Y-66.0
X181.0Y-76.25
X182.05Y-73.508
X182.875Y-69.5
X183.53Y-74.28
X186.0Y-66.0
X187.23Y-72.27
X188.25Y-65.5
T4
X114.0Y-128.0
X114.0Y-130.5
X114.5Y-57.25
X114.5Y-59.75
X166.75Y-61.0
X166.75Y-63.5
X176.5Y-85.25
X176.5Y-87.75
X185.0Y-85.25
X185.0Y-87.75
T5
X121.79Y-132.5
X121.79Y-147.74
X124.33Y-132.5
X124.33Y-147.74
X126.87Y-132.5
X126.87Y-147.74
X129.41Y-132.5
X129.41Y-147.74
X131.95Y-132.5
X131.95Y-147.74
X134.49Y-132.5
X134.49Y-147.74
X137.03Y-132.5
X137.03Y-147.74
X139.57Y-132.5
X139.57Y-147.74
X142.11Y-132.5
X142.11Y-147.74
X144.65Y-132.5
X144.65Y-147.74
X147.19Y-132.5
X147.19Y-147.74
X149.73Y-132.5
X149.73Y-147.74
X152.27Y-132.5
X152.27Y-147.74
X154.81Y-132.5
X154.81Y-147.74
X157.35Y-132.5
X157.35Y-147.74
X159.89Y-132.5
X159.89Y-147.74
X162.43Y-132.5
X162.43Y-147.74
X164.97Y-132.5
X164.97Y-147.74
X167.51Y-132.5
X167.51Y-147.74
X170.05Y-132.5
X170.05Y-147.74
X172.59Y-132.5
X172.59Y-147.74
X175.13Y-132.5
X175.13Y-147.74
X177.67Y-132.5
X177.67Y-147.74
X180.21Y-132.5
X180.21Y-147.74
T6
X114.5Y-68.46
X114.5Y-71.0
X123.03Y-87.835
X123.03Y-90.375
X126.25Y-115.21
X126.25Y-117.75
X138.5Y-62.5
X138.5Y-65.04
X149.085Y-76.97
X151.625Y-76.97
X158.21Y-77.0
X160.75Y-77.0
X161.5Y-90.5
X161.5Y-93.04
X164.5Y-126.0
X164.5Y-128.54
X167.78Y-126.085
X167.78Y-128.625
X171.03Y-126.085
X171.03Y-128.625
X183.53Y-124.085
X183.53Y-126.625
X187.03Y-124.085
X187.03Y-126.625
T7
X110.5Y-89.0
X115.0Y-117.5
X115.0Y-122.0
X116.25Y-77.0
X120.5Y-77.0
X126.75Y-81.5
X129.25Y-77.25
X131.5Y-106.5
X135.75Y-106.5
X137.0Y-71.5
X141.25Y-71.5
X143.0Y-97.0
X143.0Y-101.25
X149.0Y-89.0
X150.5Y-122.0
X150.5Y-126.25
X152.25Y-85.25
X157.0Y-85.25
X162.0Y-109.0
X162.5Y-116.0
X165.25Y-111.75
X165.75Y-55.5
X169.5Y-93.25
X169.5Y-97.75
X171.25Y-55.5
X176.5Y-55.5
T8
X101.96Y-60.21
X101.96Y-65.29
X101.96Y-112.71
X101.96Y-117.79
X101.96Y-126.71
X101.96Y-131.79
X107.04Y-60.21
X107.04Y-65.29
X107.04Y-112.71
X107.04Y-117.79
X107.04Y-126.71
X107.04Y-131.79
X134.71Y-52.46
X134.71Y-57.54
X139.79Y-52.46
X139.79Y-57.54
X190.46Y-128.96
X190.46Y-134.04
X190.92Y-96.42
X190.92Y-101.5
X191.0Y-112.42
X191.0Y-117.5
X195.54Y-128.96
X195.54Y-134.04
X196.0Y-96.42
X196.0Y-101.5
X196.08Y-112.42
X196.08Y-117.5
M30
